<svg width="180" height="54" viewBox="0 0 180 54" fill="none" xmlns="http://www.w3.org/2000/svg">
<path d="M35.8499 35.5998L18.0083 17.7582L35.8499 0H17.7582L0 17.7582L8.9208 26.679L18.0083 35.5998L26.9291 44.4372L35.8499 35.5998Z" fill="white"/>
<path d="M50.0254 26.679L41.188 17.7582L32.0171 8.92078L23.3464 17.7582L41.188 35.5998L23.1797 53.358H41.188L50.0254 44.4372L58.9462 35.5998L50.0254 26.679Z" fill="white"/>
<path d="M83.3732 20.3429C81.7892 20.3429 80.622 21.0099 79.8716 22.3438C79.1213 23.511 78.4543 25.3452 78.4543 27.6796C78.4543 32.4318 80.2885 34.5995 83.7901 34.5995C84.7906 34.5995 85.9578 34.3494 86.9582 34.1826C87.9587 33.9325 88.9592 33.5157 89.9596 33.1822V38.6847C87.9587 39.6852 85.6243 40.102 83.0398 40.102C79.5381 40.102 76.5367 39.1016 74.7026 36.9339C72.7016 34.7662 71.7012 31.8482 71.7012 27.6796C71.7012 25.0951 72.118 22.9274 73.1185 21.1766C74.119 19.1757 75.4529 17.7584 77.2871 16.8413C79.1213 15.8408 81.0388 15.2572 83.6234 15.2572C86.2079 15.2572 88.709 15.9242 91.2102 17.0914L89.2093 22.1771C88.2088 21.7602 87.3751 21.4267 86.458 21.1766C85.2908 20.5096 84.2903 20.3429 83.3732 20.3429Z" fill="white"/>
<path d="M110.384 32.1817C110.384 33.7658 109.967 34.933 109.217 36.1002C108.467 37.2674 107.383 38.1011 105.799 38.8514C104.381 39.5184 102.797 39.8519 100.88 39.8519C99.2956 39.8519 97.8783 39.6018 96.9612 39.4351C95.794 39.1849 94.7935 38.7681 93.543 38.2678V32.3484C94.7102 33.0154 96.1275 33.5156 97.4614 33.9325C98.8788 34.3494 100.046 34.5995 101.213 34.5995C102.214 34.5995 102.797 34.3494 103.381 33.9325C103.798 33.5156 104.048 33.1822 104.048 32.5152C104.048 32.0983 104.048 31.8482 103.798 31.7648C103.548 31.5147 103.381 31.0979 103.047 31.0145C102.631 30.7644 101.63 30.2641 99.8792 29.4304C98.2952 28.6801 97.128 28.0131 96.3776 27.2628C95.6273 26.5958 94.9603 25.8454 94.5434 24.9283C94.1266 24.178 93.8765 22.9274 93.8765 21.7602C93.8765 19.5925 94.6268 17.8417 96.2109 16.6745C97.7949 15.5073 99.9626 14.8403 102.881 14.8403C105.465 14.8403 107.966 15.5073 110.634 16.6745L108.633 21.7602C106.466 20.7597 104.465 20.1761 102.714 20.1761C101.964 20.1761 101.297 20.4263 100.88 20.593C100.463 21.0099 100.213 21.26 100.213 21.7602C100.213 22.1771 100.463 22.7607 100.963 22.9274C101.38 23.3443 102.797 23.9279 104.882 24.9283C107.049 25.9288 108.383 26.9293 109.217 27.9297C110.051 29.2637 110.384 30.4309 110.384 32.1817Z" fill="white"/>
<path d="M130.062 32.1817C130.062 33.7658 129.645 34.933 128.895 36.1002C128.144 37.2674 127.06 38.1011 125.476 38.8514C124.059 39.5184 122.308 39.8519 120.557 39.8519C118.973 39.8519 117.556 39.6018 116.639 39.4351C115.472 39.1849 114.471 38.7681 113.221 38.2678V32.3484C114.388 33.0154 115.805 33.5156 117.139 33.9325C118.473 34.3494 119.724 34.5995 120.891 34.5995C121.891 34.5995 122.475 34.3494 123.059 33.9325C123.475 33.5156 123.726 33.1822 123.726 32.5152C123.726 32.0983 123.726 31.8482 123.475 31.7648C123.225 31.5981 123.059 31.0979 122.725 31.0145C122.308 30.7644 121.308 30.2641 119.557 29.4304C117.973 28.6801 116.806 28.0131 116.055 27.2628C115.305 26.5958 114.638 25.8454 114.221 24.9283C113.804 24.178 113.554 22.9274 113.554 21.7602C113.554 19.5925 114.305 17.8417 115.889 16.6745C117.473 15.5073 119.64 14.8403 122.558 14.8403C125.143 14.8403 127.644 15.5073 130.312 16.6745L128.311 21.7602C126.143 20.7597 124.142 20.1761 122.392 20.1761C121.641 20.1761 120.974 20.4263 120.557 20.593C120.141 21.0099 119.89 21.26 119.89 21.7602C119.89 22.1771 120.141 22.7607 120.641 22.9274C121.058 23.3443 122.475 23.9279 124.559 24.9283C126.727 25.9288 128.061 26.9293 128.895 27.9297C129.645 29.2637 130.062 30.4309 130.062 32.1817Z" fill="white"/>
<path d="M154.155 26.9293C154.155 30.8478 152.988 34.0993 150.737 36.1836C148.569 38.3512 145.401 39.6018 141.483 39.6018H133.562V15.1738H141.9C145.818 15.1738 148.82 16.1743 150.82 18.1752C153.155 20.3429 154.155 23.1775 154.155 26.9293ZM147.402 27.096C147.402 24.9283 146.985 23.1775 145.985 22.1771C145.235 21.1766 143.817 20.593 142.066 20.593H140.066V34.266H141.483C143.484 34.266 144.901 33.599 145.818 32.4318C146.985 31.2646 147.402 29.4304 147.402 27.096Z" fill="white"/>
<path d="M155.49 39.5183L165.411 15.1737H169.163L180.002 39.5183H173.499L167.329 24.6781L161.827 39.5183H155.49Z" fill="white"/>
</svg>
