<svg width="1147" height="182" viewBox="0 0 1147 182" fill="none" xmlns="http://www.w3.org/2000/svg">
<path d="M24.2 181.4C19.6667 181.4 15.6667 180.6 12.2 179C8.73333 177.4 5.86667 175.4 3.6 173C1.2 170.333 0 167.4 0 164.2C0 161.267 0.933334 158.267 2.8 155.2C4.66667 152.133 7.26667 149.133 10.6 146.2C12.7333 144.333 15.4 142.333 18.6 140.2C21.8 137.933 25.1333 135.933 28.6 134.2C32.0667 132.467 35.1333 131.267 37.8 130.6C38.3333 130.467 38.8 130.4 39.2 130.4C39.6 130.267 39.9333 130.2 40.2 130.2C41.4 130.2 42 130.6 42 131.4C42 133.133 40.4667 134.667 37.4 136C34.3333 137.467 31.1333 139.6 27.8 142.4C24.6 145.067 21.6 147.933 18.8 151C16 154.2 13.7333 157.267 12 160.2C10.2667 163.267 9.4 165.8 9.4 167.8C9.4 170.867 11.4 172.333 15.4 172.2C19.5333 172.067 23.8 170.533 28.2 167.6C32.6 164.8 36.8 161.067 40.8 156.4C44.9333 151.867 48.6667 147 52 141.8C55.3333 136.467 58 131.4 60 126.6C62 121.667 63.1333 117.467 63.4 114C63.6667 110.667 63.4667 108.4 62.8 107.2C62.2667 105.867 61.4667 105.2 60.4 105.2C58.8 105.2 56.9333 106.133 54.8 108C52.6667 109.867 50.9333 111.267 49.6 112.2C49.0667 112.467 48.5333 112.6 48 112.6C46.4 112.6 44.6667 111.933 42.8 110.6C40.9333 109.267 40.0667 107.933 40.2 106.6C40.2 105.933 41.2 104.4 43.2 102C45.2 99.6 47.7333 96.6667 50.8 93.2C53.8667 89.6 57.1333 85.8667 60.6 82C64.0667 78.1333 67.2667 74.4667 70.2 71C73.2667 67.4 75.6667 64.4 77.4 62C75.1333 60.9333 72.3333 59.9333 69 59C65.6667 58.0667 62.2667 57.4 58.8 57C56.8 56.7333 54.2667 56.8667 51.2 57.4C48.2667 57.9333 45.3333 59 42.4 60.6C39.4667 62.2 37.0667 64.6667 35.2 68C34.6667 68.8 33.9333 69.2 33 69.2C31.9333 69.2 31.4 68.5333 31.4 67.2C31.4 65.4667 32 63.4 33.2 61C34.5333 58.6 36.0667 56.2 37.8 53.8C39.5333 51.4 41.0667 49.2667 42.4 47.4C44.5333 44.3333 47.2 41.4 50.4 38.6C53.6 35.8 56.8667 34.4 60.2 34.4C61.5333 34.4 63.7333 34.8667 66.8 35.8C69.8667 36.7333 73.3333 37.6667 77.2 38.6C81.2 39.5333 85 40.0667 88.6 40.2C92.7333 40.2 95.8667 39.8 98 39C100 38.3333 101.8 37.4667 103.4 36.4C105.133 35.2 106.133 33.9333 106.4 32.6C106.8 31.2667 107.667 30.6 109 30.6C110.333 30.6 111 31.3333 111 32.8C111 36.2667 110.6 39.4 109.8 42.2C109.133 44.8667 108.2 47.2667 107 49.4C105.667 51.8 103.333 54.6667 100 58C96.6667 61.3333 92.8667 64.9333 88.6 68.8C84.3333 72.5333 80 76.3333 75.6 80.2C71.2 83.9333 67.1333 87.5333 63.4 91C59.6667 94.3333 56.8 97.3333 54.8 100C59.3333 98.9333 63.4 98.4 67 98.4C72.8667 98.4 77.8 99.9333 81.8 103C85.9333 106.067 88 111.6 88 119.6C88 125.867 86.4667 132.6 83.4 139.8C80.3333 146.867 75.9333 153.533 70.2 159.8C64.6 166.2 57.8667 171.4 50 175.4C42.2667 179.4 33.6667 181.4 24.2 181.4Z" fill="white"/>
<path d="M119.688 153.4C109.154 153.4 100.754 150.533 94.4875 144.8C88.3542 138.933 85.2875 131.133 85.2875 121.4C85.2875 112.2 88.4208 104.867 94.6875 99.4C101.087 93.9333 110.288 90.7333 122.288 89.8L150.288 87.6V86C150.288 82.6667 149.621 79.9333 148.288 77.8C146.954 75.5333 145.021 73.8667 142.488 72.8C140.088 71.6 137.021 71 133.288 71C126.754 71 121.754 72.2 118.287 74.6C114.954 77 113.287 80.4667 113.287 85H87.6875C87.6875 77.4 89.6208 70.8 93.4875 65.2C97.3542 59.6 102.821 55.2667 109.888 52.2C117.088 49.1333 125.421 47.6 134.888 47.6C144.621 47.6 152.821 49.3333 159.488 52.8C166.288 56.2667 171.421 61.3333 174.887 68C178.487 74.6667 180.288 82.8 180.288 92.4V150.8H153.088L151.088 137.6C149.488 142.133 145.687 145.933 139.688 149C133.821 151.933 127.154 153.4 119.688 153.4ZM130.488 130.6C136.354 130.6 141.154 129.2 144.887 126.4C148.621 123.467 150.488 119.133 150.488 113.4V108L134.888 109.4C128.221 109.933 123.487 111.067 120.688 112.8C118.021 114.4 116.688 116.8 116.688 120C116.688 123.6 117.821 126.267 120.088 128C122.354 129.733 125.821 130.6 130.488 130.6Z" fill="white"/>
<path d="M188.978 100.4C188.978 90.1333 191.178 81.0667 195.578 73.2C199.978 65.2 205.978 58.9333 213.578 54.4C221.311 49.8667 230.178 47.6 240.178 47.6C254.978 47.6 266.978 51.4 276.178 59C285.378 66.6 290.445 76.9333 291.378 90H260.378C259.311 84.9333 257.178 81.2 253.978 78.8C250.911 76.4 246.711 75.2 241.378 75.2C237.111 75.2 233.311 76.2667 229.978 78.4C226.778 80.4 224.311 83.2667 222.578 87C220.845 90.7333 219.978 95.2 219.978 100.4C219.978 105.733 220.778 110.333 222.378 114.2C224.111 117.933 226.511 120.8 229.578 122.8C232.778 124.8 236.578 125.8 240.978 125.8C246.445 125.8 250.778 124.6 253.978 122.2C257.311 119.667 259.445 115.933 260.378 111H291.378C290.711 119.4 288.111 126.8 283.578 133.2C279.178 139.467 273.311 144.4 265.978 148C258.645 151.6 250.311 153.4 240.978 153.4C230.445 153.4 221.245 151.2 213.378 146.8C205.645 142.4 199.645 136.267 195.378 128.4C191.111 120.4 188.978 111.067 188.978 100.4Z" fill="white"/>
<path d="M331.045 150.8H300.245V0H331.045V86.8L363.445 50.8H402.045L364.445 90.4L400.845 150.8H365.245L342.845 113.4L331.045 125.8V150.8Z" fill="white"/>
<path d="M479.828 153.6C473.161 153.6 468.095 151.8 464.628 148.2C461.161 144.467 459.428 139.333 459.428 132.8C459.428 124.933 460.561 117.067 462.828 109.2C465.228 101.333 468.095 93.7333 471.428 86.4C474.895 78.9333 478.295 72 481.628 65.6C485.095 59.0667 487.895 53.3333 490.028 48.4C491.228 45.6 491.828 43.1333 491.828 41C491.828 38.2 490.695 36.8 488.428 36.8C486.828 36.8 484.495 37.9333 481.428 40.2C478.361 42.3333 475.428 45.4 472.628 49.4C466.628 57.8 462.028 65.6667 458.828 73C455.628 80.3333 454.028 86.4667 454.028 91.4C454.028 93.6667 454.428 95.6 455.228 97.2C455.495 97.6 455.628 98.2 455.628 99C455.628 100.067 455.028 100.6 453.828 100.6C452.628 100.6 451.161 99.9333 449.428 98.6C447.295 96.8667 445.695 94.7333 444.628 92.2C443.695 89.6667 443.228 86.8 443.228 83.6C443.228 79.2 444.028 74.5333 445.628 69.6C447.361 64.6667 449.628 59.8667 452.428 55.2C455.228 50.4 458.428 46.2 462.028 42.6C466.295 38.3333 470.961 34.9333 476.028 32.4C481.228 29.8667 485.495 28.6 488.828 28.6C497.095 28.6 503.428 30.2667 507.828 33.6C512.361 36.9333 514.628 41 514.628 45.8C514.628 47.4 514.295 49.2 513.628 51.2C511.628 57.0667 508.895 63.8 505.428 71.4C502.095 78.8667 498.628 86.6 495.028 94.6C491.561 102.6 488.561 110.333 486.028 117.8C483.628 125.267 482.428 131.867 482.428 137.6C482.428 139.733 482.695 141.467 483.228 142.8C483.895 144 484.895 144.6 486.228 144.6C489.028 144.6 492.228 142.333 495.828 137.8C499.428 133.133 503.295 126.933 507.428 119.2C511.561 111.467 515.828 102.933 520.228 93.6C523.695 83.8667 526.961 75.4667 530.028 68.4C533.228 61.2 535.695 56.2667 537.428 53.6C539.828 50.1333 541.895 47.8667 543.628 46.8C545.361 45.6 547.295 45 549.428 45C551.695 44.8667 554.561 44.8 558.028 44.8C561.628 44.5333 564.495 44.7333 566.628 45.4C568.761 45.9333 569.495 46.6 568.828 47.4C564.161 53.5333 559.695 60.7333 555.428 69C551.295 77.2667 547.561 85.7333 544.228 94.4C541.028 103.067 538.495 111.133 536.628 118.6C534.761 126.067 533.828 132.133 533.828 136.8C533.828 142.4 535.161 145.2 537.828 145.2C541.028 145.2 544.495 143.267 548.228 139.4C551.961 135.4 555.695 130.267 559.428 124C563.295 117.6 566.961 110.8 570.428 103.6C571.628 101.067 573.228 97.1333 575.228 91.8C577.228 86.4667 579.295 80.6 581.428 74.2C583.561 67.8 585.295 61.6 586.628 55.6C588.095 49.6 588.828 44.6667 588.828 40.8C588.828 36.2667 587.695 34 585.428 34C584.361 34 583.828 33.6 583.828 32.8C583.828 32.4 584.095 31.9333 584.628 31.4C585.161 30.8667 585.895 30.5333 586.828 30.4C589.095 29.8667 591.428 29.6 593.828 29.6C600.095 29.6 604.428 31.4667 606.828 35.2C609.228 38.9333 610.428 43.4667 610.428 48.8C610.428 53.2 609.828 57.8667 608.628 62.8C607.428 67.6 606.028 72.0667 604.428 76.2C601.895 82.7333 598.828 89.5333 595.228 96.6C591.628 103.667 587.561 110.6 583.028 117.4C578.495 124.067 573.628 130.133 568.428 135.6C563.361 141.067 558.095 145.4 552.628 148.6C547.295 151.8 541.895 153.4 536.428 153.4C528.828 153.4 522.961 151.2 518.828 146.8C514.695 142.267 512.561 135.933 512.428 127.8C507.895 135.133 502.895 141.267 497.428 146.2C492.095 151.133 486.228 153.6 479.828 153.6Z" fill="white"/>
<path d="M637.294 153.4C627.294 153.4 618.36 151.133 610.494 146.6C602.76 142.067 596.627 135.867 592.094 128C587.694 120 585.494 110.867 585.494 100.6C585.494 90.2 587.627 81.0667 591.894 73.2C596.294 65.2 602.36 58.9333 610.094 54.4C617.827 49.8667 626.694 47.6 636.694 47.6C647.227 47.6 656.294 49.8 663.894 54.2C671.494 58.4667 677.36 64.6 681.494 72.6C685.627 80.4667 687.694 89.8667 687.694 100.8V108.6L601.694 109L602.094 90H657.094C657.094 84.6667 655.294 80.4667 651.694 77.4C648.094 74.2 643.16 72.6 636.894 72.6C631.694 72.6 627.427 73.6 624.094 75.6C620.894 77.6 618.494 80.7333 616.894 85C615.294 89.1333 614.494 94.4667 614.494 101C614.494 110.333 616.36 117.267 620.094 121.8C623.96 126.2 629.894 128.4 637.894 128.4C643.76 128.4 648.627 127.4 652.494 125.4C656.36 123.4 658.827 120.6 659.894 117H688.094C686.36 128.067 680.894 136.933 671.694 143.6C662.494 150.133 651.027 153.4 637.294 153.4Z" fill="white"/>
<path d="M726.933 150.8H697.933V0H728.733V62.4C731.799 57.8667 736.333 54.2667 742.333 51.6C748.466 48.8 755.133 47.4 762.333 47.4C771.666 47.4 779.733 49.6667 786.533 54.2C793.466 58.7333 798.8 65.0667 802.533 73.2C806.266 81.3333 808.133 90.8667 808.133 101.8C808.133 112.067 806.066 121.133 801.933 129C797.933 136.733 792.266 142.733 784.933 147C777.733 151.267 769.399 153.4 759.933 153.4C752.999 153.4 746.666 152 740.933 149.2C735.333 146.267 731.2 142.533 728.533 138L726.933 150.8ZM728.933 100.2C728.933 105.133 729.933 109.533 731.933 113.4C734.066 117.133 736.933 120.067 740.533 122.2C744.266 124.2 748.533 125.2 753.333 125.2C758.266 125.2 762.466 124.133 765.933 122C769.533 119.867 772.266 116.933 774.133 113.2C776.133 109.467 777.133 105.133 777.133 100.2C777.133 95.2667 776.133 90.9333 774.133 87.2C772.266 83.4667 769.533 80.5333 765.933 78.4C762.466 76.2667 758.266 75.2 753.333 75.2C748.533 75.2 744.266 76.2667 740.533 78.4C736.933 80.4 734.066 83.2667 731.933 87C729.933 90.7333 728.933 95.1333 728.933 100.2Z" fill="white"/>
<path d="M810.662 119.2H839.862C840.129 122.667 841.529 125.4 844.062 127.4C846.596 129.4 850.196 130.4 854.862 130.4C859.662 130.4 863.196 129.6 865.463 128C867.729 126.4 868.862 124.333 868.862 121.8C868.862 120.333 868.263 118.867 867.062 117.4C865.996 115.933 863.596 114.8 859.862 114L841.463 110C832.263 108 825.396 104.8 820.862 100.4C816.329 95.8667 814.062 89.2 814.062 80.4C814.062 73.4667 815.863 67.6 819.463 62.8C823.196 57.8667 828.196 54.1333 834.463 51.6C840.729 48.9333 847.862 47.6 855.862 47.6C863.596 47.6 870.396 49 876.263 51.8C882.263 54.6 886.929 58.5333 890.263 63.6C893.596 68.6667 895.263 74.6 895.263 81.4H866.062C866.062 77.9333 865.063 75.2 863.062 73.2C861.063 71.0667 858.196 70 854.463 70C850.996 70 848.196 70.8667 846.062 72.6C844.062 74.2 843.062 76.3333 843.062 79C843.062 83.2667 846.662 86.2 853.862 87.8L872.463 91.8C880.729 93.5333 886.996 96.5333 891.263 100.8C895.663 104.933 897.862 111 897.862 119C897.862 126.067 895.996 132.2 892.263 137.4C888.529 142.6 883.329 146.6 876.662 149.4C869.996 152.067 862.329 153.4 853.662 153.4C840.462 153.4 829.996 150.267 822.263 144C814.529 137.6 810.662 129.333 810.662 119.2Z" fill="white"/>
<path d="M896.556 50.8H965.356V76.4H896.556V50.8ZM946.356 150.8H915.556V19.8H946.356V150.8Z" fill="white"/>
<path d="M1016.62 153.4C1006.62 153.4 997.689 151.133 989.822 146.6C982.089 142.067 975.955 135.867 971.422 128C967.022 120 964.822 110.867 964.822 100.6C964.822 90.2 966.955 81.0667 971.222 73.2C975.622 65.2 981.689 58.9333 989.422 54.4C997.155 49.8667 1006.02 47.6 1016.02 47.6C1026.56 47.6 1035.62 49.8 1043.22 54.2C1050.82 58.4667 1056.69 64.6 1060.82 72.6C1064.96 80.4667 1067.02 89.8667 1067.02 100.8V108.6L981.022 109L981.422 90H1036.42C1036.42 84.6667 1034.62 80.4667 1031.02 77.4C1027.42 74.2 1022.49 72.6 1016.22 72.6C1011.02 72.6 1006.76 73.6 1003.42 75.6C1000.22 77.6 997.822 80.7333 996.222 85C994.622 89.1333 993.822 94.4667 993.822 101C993.822 110.333 995.689 117.267 999.422 121.8C1003.29 126.2 1009.22 128.4 1017.22 128.4C1023.09 128.4 1027.96 127.4 1031.82 125.4C1035.69 123.4 1038.16 120.6 1039.22 117H1067.42C1065.69 128.067 1060.22 136.933 1051.02 143.6C1041.82 150.133 1030.36 153.4 1016.62 153.4Z" fill="white"/>
<path d="M1146.06 50.8V79.8H1136.26C1127.46 79.8 1120.53 81.9333 1115.46 86.2C1110.53 90.4667 1108.06 97.5333 1108.06 107.4V150.8H1077.26V51H1106.26L1108.66 72.4H1105.86C1107.19 65.7333 1110.19 60.2667 1114.86 56C1119.66 51.6 1126.13 49.4 1134.26 49.4C1136.13 49.4 1137.99 49.5333 1139.86 49.8C1141.86 49.9333 1143.93 50.2667 1146.06 50.8Z" fill="white"/>
</svg>
